<svg id="Слой_1" xmlns="http://www.w3.org/2000/svg" xmlns:xlink="http://www.w3.org/1999/xlink" viewBox="0 0 42.4 37.8"><style>.st0{clip-path:url(#SVGID_2_);fill:#a3b1bf}</style><defs><path id="SVGID_1_" d="M0 0h42.4v37.8H0z"/></defs><clipPath id="SVGID_2_"><use xlink:href="#SVGID_1_" overflow="visible"/></clipPath><path class="st0" d="M24.1 0c-1.1 0-2 .3-2.7 1-1.6 1.6-1.6 3.3 0 5.2L33.5 19 21.4 31.6c-1.6 1.9-1.6 3.6 0 5.2.7.7 1.6 1 2.6 1s1.9-.3 2.6-1l14.7-15.3c.7-.7 1-1.5 1-2.5s-.3-1.9-1-2.6L26.6 1c-.5-.7-1.4-1-2.5-1"/><path class="st0" d="M3.5 15.4h27.9c2 0 3.5 1.6 3.5 3.5s-1.6 3.5-3.5 3.5H3.5c-2 0-3.5-1.6-3.5-3.5s1.6-3.5 3.5-3.5"/></svg>