<svg id="Layer_1" xmlns="http://www.w3.org/2000/svg" xmlns:xlink="http://www.w3.org/1999/xlink" viewBox="0 0 37.7 63.7"><style>.st0{clip-path:url(#SVGID_2_);fill:#a3b1bf}</style><defs><path id="SVGID_1_" d="M0 0h37.7v63.7H0z"/></defs><clipPath id="SVGID_2_"><use xlink:href="#SVGID_1_" overflow="visible"/></clipPath><path class="st0" d="M5.2 8.5h27.3v42.9H5.2V8.5zm10.5 51.7c-1-.6-1.4-1.4-1.4-2.3 0-.9.5-1.7 1.4-2.3 1-.6 2-.9 3.1-.9 1.2 0 2.3.3 3.2.9.9.6 1.4 1.4 1.4 2.4s-.5 1.7-1.4 2.3c-.9.6-2 .9-3.2.9-1.1-.1-2.1-.4-3.1-1M6.5 0C4.7 0 3.2.6 1.9 1.9.6 3.2 0 4.7 0 6.5v50.7c0 1.7.6 3.3 2 4.5 1.3 1.3 2.8 2 4.5 2h24.7c1.8 0 3.3-.6 4.6-1.9 1.3-1.3 1.9-2.8 1.9-4.6V6.5c0-1.8-.6-3.4-1.9-4.6C34.6.6 33 0 31.2 0H6.5z"/></svg>