<svg id="Слой_1" xmlns="http://www.w3.org/2000/svg" xmlns:xlink="http://www.w3.org/1999/xlink" viewBox="0 0 45.5 65"><style>.st0{clip-path:url(#SVGID_2_);fill:#00bc9c}</style><defs><path id="SVGID_1_" d="M0 0h45.5v65H0z"/></defs><clipPath id="SVGID_2_"><use xlink:href="#SVGID_1_" overflow="visible"/></clipPath><path class="st0" d="M22.7 6.8c9.9 0 15.2 4.2 15.9 12.7.1 1.1-.1 2.5-.5 4.1-.2.7-.9 2-2.1 4 0 .1-.3.5-.8 1.2L33.6 31c-.5.7-.8 1.1-.8 1.2-3.8 5.1-6.2 9.7-7.3 13.8h-5.3c-1-4-3.5-8.6-7.3-13.8-.1-.1-.4-.6-1-1.4-.6-.9-.9-1.3-1-1.4 0-.1-.3-.5-.9-1.2-.6-.8-.9-1.2-1-1.3l-.3-.4c-.1-.3-.3-.5-.4-.8-.1-.2-.2-.5-.3-.7-.1-.3-.2-.4-.2-.5 0 0-.1-.4-.4-1.2-.3-.7-.4-1.1-.3-1.2 0 0 0-.5-.1-1.3s-.1-1.2 0-1.3C7.6 11 12.9 6.8 22.7 6.8m8.8 44.9c0-2.6.5-5.1 1.6-7.4.5-1.1 1.1-2.2 1.8-3.3.7-1.1 1.3-2.1 1.8-2.8.5-.7 1.2-1.7 2.2-2.9l2.1-2.7c3.3-4.4 4.7-8.9 4.4-13.6-.5-5.3-2.5-9.8-6.2-13.4C35.5 1.9 30 0 22.7 0 15.4 0 9.9 1.9 6.2 5.6 2.4 9.4.4 13.8.1 19c-.3 3 .3 6 1.6 8.9 1.3 2.9 3 5.4 4.9 7.4 1.9 2.1 3.7 4.6 5.2 7.6 1.5 2.9 2.2 5.9 2.2 8.9h17.5zM13.6 62.4c3 1.8 6.1 2.6 9.1 2.6 3.1.1 6.2-.8 9.2-2.6v-6.8H13.6v6.8z"/></svg>