<svg id="Слой_1" xmlns="http://www.w3.org/2000/svg" xmlns:xlink="http://www.w3.org/1999/xlink" viewBox="0 0 56 53.4"><style>.st0{clip-path:url(#SVGID_2_);fill:#00bc9c}</style><defs><path id="SVGID_1_" d="M0 0h56v53.4H0z"/></defs><clipPath id="SVGID_2_"><use xlink:href="#SVGID_1_" overflow="visible"/></clipPath><path class="st0" d="M22.3 21.6L28 10.1l5.7 11.5 12.7 1.8-9.2 9L39.3 45l-11.4-5.9L16.6 45l2.1-12.6-9.2-9 12.8-1.8zM11.6 53.4c.4 0 .9-.2 1.3-.5l15-7.9 15.2 8c.4.3.9.5 1.4.5.9 0 1.4-.6 1.4-1.7v-.7L43 34.3l12.3-11.9c.5-.6.8-1.1.8-1.7 0-.7-.6-1.1-1.8-1.5l-16.9-2.5-7.8-15.3c-.5-.9-1-1.4-1.7-1.4s-1.2.5-1.6 1.4l-7.6 15.3-16.9 2.5C.6 19.5 0 20 0 20.7c0 .5.3 1.1.8 1.7L13 34.3l-2.9 16.8v.7c0 1.1.5 1.6 1.5 1.6"/></svg>