<svg id="Слой_1" xmlns="http://www.w3.org/2000/svg" xmlns:xlink="http://www.w3.org/1999/xlink" viewBox="0 0 32.5 52"><style>.st0{clip-path:url(#SVGID_2_);fill:#a3b1bf}</style><defs><path id="SVGID_1_" d="M0 0h32.5v52H0z"/></defs><clipPath id="SVGID_2_"><use xlink:href="#SVGID_1_" overflow="visible"/></clipPath><path class="st0" d="M7.5 16.4c0-2.4.9-4.5 2.6-6.2 1.7-1.7 3.8-2.5 6.1-2.5 2.4 0 4.5.9 6.2 2.6 1.7 1.7 2.6 3.8 2.6 6.1 0 2.4-.9 4.5-2.6 6.2-1.8 1.7-3.8 2.6-6.2 2.6-2.4 0-4.4-.9-6.1-2.6-1.7-1.7-2.6-3.8-2.6-6.2M4.7 4.7C1.6 7.9 0 11.7 0 16.3c0 5.5 1.9 11.9 5.7 19.2 1.4 2.7 3.1 5.7 5.2 8.9 2.1 3.3 3.9 5.8 5.4 7.6l4-5.5C23 42.9 25.8 38 28.5 32c2.7-6 4-11.2 4-15.8 0-4.5-1.6-8.3-4.7-11.5-3.2-3.1-7-4.7-11.5-4.7-4.6 0-8.4 1.6-11.6 4.7"/></svg>