<svg id="Layer_1" xmlns="http://www.w3.org/2000/svg" xmlns:xlink="http://www.w3.org/1999/xlink" viewBox="0 0 61.6 51.4"><style>.st0{clip-path:url(#SVGID_2_);fill:#a3b1bf}</style><defs><path id="SVGID_1_" d="M0 0h61.6v51.4H0z"/></defs><clipPath id="SVGID_2_"><use xlink:href="#SVGID_1_" overflow="visible"/></clipPath><path class="st0" d="M5.1 5.1h51.4v2.2c0 .8-.2 1.5-.5 2.1-1 2.5-2.5 4.4-4.4 5.8L38.2 25.4l-3.4 2.7c-1.6 1.1-2.8 1.6-3.8 1.6h-.1c-.6 0-1.2-.2-1.8-.5-1.1-.6-2.4-1.4-4-2.6l-7.4-5.7-7.5-5.7c-1.2-.9-2.3-2.1-3.3-3.6-1.2-1.6-1.8-3-1.8-4.3V5.1zm0 41.1V17.7c.8.8 1.4 1.3 1.9 1.7 7.7 5.8 12.4 9.4 14.2 10.8 1.1 1 2.6 2 4.5 3.2 1.5 1 3.2 1.5 5.1 1.5 2 0 3.7-.5 5.3-1.5 1.6-1 3.1-2.1 4.4-3.2 3.7-3 8.5-6.6 14.2-10.8.6-.3 1.2-.9 2-1.6v28.5H5.1zm52.7 5.2c1 0 1.9-.4 2.7-1.1.7-.8 1.1-1.7 1.1-2.7V3.8c0-1-.4-1.9-1.1-2.7C59.7.4 58.8 0 57.8 0h-54c-1 0-1.9.4-2.7 1.1C.4 1.9 0 2.8 0 3.8v43.7c0 1 .4 1.9 1.1 2.7.8.8 1.7 1.1 2.7 1.1h54z"/></svg>