<svg id="Слой_1" xmlns="http://www.w3.org/2000/svg" xmlns:xlink="http://www.w3.org/1999/xlink" viewBox="0 0 60.2 53.4"><style>.st0{clip-path:url(#SVGID_2_);fill:#00bc9c}</style><defs><path id="SVGID_1_" d="M0 0h60.2v53.4H0z"/></defs><clipPath id="SVGID_2_"><use xlink:href="#SVGID_1_" overflow="visible"/></clipPath><path class="st0" d="M16.3 5.3c1.1 0 2.3.3 3.5.8 3.3 1.5 6 3.7 8.3 6.6.5.7 1.2 1 2 1s1.5-.3 2.1-1c1.3-1.6 2.8-3.1 4.7-4.5 2.6-2 4.9-2.9 7-2.9 7.3 0 10.9 3.7 10.9 11.2 0 1.4-.3 2.9-.9 4.4-1.1 2.6-2.5 4.8-4.2 6.4L40 37.1 30.1 47 21 37.9 10.4 27.3c-.6-.7-1.3-1.5-2.1-2.7-2-2.9-3-5.6-3-8.1 0-7.4 3.7-11.2 11-11.2M1.2 22.5c1.3 3.1 3 5.8 5.2 8.3.5.6 1 1.1 1.3 1.4l20.6 20.5c.5.5 1.1.8 1.8.8s1.3-.3 2-.8l20.5-20.5.3-.1c.1-.1.2-.3.4-.6.2-.2.4-.5.7-.7.9-1 1.8-2.1 2.7-3.4 2.4-3.7 3.6-7.3 3.6-10.8 0-3-.5-5.6-1.4-7.7-2.8-6-7.8-8.9-15-8.9-1.5 0-2.9.2-4.2.7-3.3 1.2-6.5 3.3-9.6 6.4C27.9 5 26 3.4 24.4 2.5 21.6.8 18.9 0 16.3 0c-5.2 0-9.2 1.5-12 4.4C1.4 7.3 0 11.3 0 16.5c0 2 .4 4 1.2 6"/></svg>