<svg id="Слой_1" xmlns="http://www.w3.org/2000/svg" xmlns:xlink="http://www.w3.org/1999/xlink" viewBox="0 0 51.3 51.5"><style>.st0{clip-path:url(#SVGID_2_);fill:#506a85}</style><defs><path id="SVGID_1_" d="M0 0h51.3v51.5H0z"/></defs><clipPath id="SVGID_2_"><use xlink:href="#SVGID_1_" overflow="visible"/></clipPath><path class="st0" d="M20 6.2c3.9 0 7.2 1.5 10.1 4.4 2.9 2.9 4.4 6.3 4.4 10.1 0 3.9-1.4 7.2-4.1 9.9s-6 4.1-9.8 4.1c-3.8 0-7.2-1.5-10.1-4.4-2.9-3-4.4-6.3-4.4-10.1s1.4-7.1 4.1-9.8 6-4.2 9.8-4.2m17.8 25c2-3.2 3-6.7 3-10.5 0-5.5-2.1-10.4-6.2-14.5C30.4 2.1 25.5 0 20 0S9.8 2 5.9 5.9C2 9.9 0 14.6 0 20.2c0 5.5 2.1 10.4 6.2 14.5s8.9 6.2 14.5 6.2c3.6 0 7-.9 10.1-2.7l12.3 12.3c1.4 1.4 2.9 1.4 4.4 0l3-3c1-1.2.9-2.6-.4-4L37.8 31.2z"/></svg>