<svg xmlns="http://www.w3.org/2000/svg" width="802.877" height="228.88" viewBox="0 0 802.877 228.88"><defs><style>.cls-1{fill:#d34f41;fill-opacity:0;stroke:#fff;stroke-linejoin:round;stroke-width:3px;fill-rule:evenodd}</style></defs><path id="BC" class="cls-1" d="M1214.93 2747.51c.07-11.34-24.42-20.64-54.42-20.67l-73.69-.06c-30-.03-73.68-5.87-97.07-12.97 0 0-87.71-26.66-174.732-26.73s-175.062 26.42-175.062 26.42c-23.473 7.06-67.226 12.82-97.233 12.79l-72.317-.06c-30.006-.03-54.611 9.23-54.683 20.57l-.656 105.18c-.067 11.34 24.423 20.65 54.429 20.67l71.232.07c30.007.02 73.617 5.89 96.922 13.04 0 0 88.338 27.08 175.965 27.16s176.3-26.85 176.3-26.85c23.4-7.11 67.087-12.9 97.087-12.87l72.6.07c30 .02 54.61-9.24 54.68-20.58z" transform="translate(-413.563 -2685.56)"/></svg>