<svg xmlns="http://www.w3.org/2000/svg" width="207" height="111" viewBox="0 0 207 111"><defs><style>.cls-1{fill:#fff;stroke:#fff;stroke-linejoin:round;stroke-width:3px;fill-rule:evenodd}</style></defs><path id="BOTON" class="cls-1" d="M913.983 2883.85c.017-5.22-6.106-9.5-13.606-9.52l-18.421-.03c-7.5-.01-18.421-2.69-24.269-5.97 0 0-21.927-12.26-43.683-12.3s-43.765 12.16-43.765 12.16c-5.868 3.25-16.807 5.9-24.308 5.89l-18.08-.03c-7.5-.01-13.652 4.25-13.67 9.47l-.164 48.4c-.017 5.22 6.1 9.5 13.607 9.51l17.808.03c7.5.01 18.4 2.71 24.231 6 0 0 22.084 12.47 43.991 12.5s44.074-12.35 44.074-12.35c5.848-3.27 16.771-5.94 24.272-5.93l18.149.03c7.5.02 13.653-4.24 13.671-9.46z" transform="translate(-710.5 -2852.5)"/></svg>