<svg id="Группа_1" data-name="Группа 1" xmlns="http://www.w3.org/2000/svg" width="72.813" height="58.406" viewBox="0 0 72.813 58.406"><defs><style>.cls-1,.cls-2{fill:#fff;fill-rule:evenodd}.cls-2{fill:#de5749}</style></defs><path id="bc" class="cls-1" d="M61.732 2.848a4.6 4.6 0 0 0-6.319-1.421l-5.591 3.211A16.809 16.809 0 0 1 41.089 6.5S31.612 5.435 25.01 9.228 14.55 21.746 14.55 21.746a16.832 16.832 0 0 1-6.009 6.607l-5.487 3.153a4.606 4.606 0 0 0-1.959 6.177l11.12 19.374a4.6 4.6 0 0 0 6.32 1.421l5.4-3.1a16.682 16.682 0 0 1 8.729-1.842s9.571 1.117 16.219-2.7 10.512-12.659 10.512-12.659a16.711 16.711 0 0 1 5.99-6.615l5.508-3.162a4.606 4.606 0 0 0 1.959-6.177z" transform="translate(-.563 -.75)"/><path id="preview" class="cls-2" d="M21.482 40.142s-.113-13.4 9.034-18.678c8.66-5 20.968 1.357 20.968 1.357s-.7 13.868-9.309 18.837c-9.2 5.313-20.693-1.516-20.693-1.516zm12.332-13.154a5.239 5.239 0 1 1-1.914 7.157 5.241 5.241 0 0 1 1.914-7.157zm1.338 2.254A2.608 2.608 0 1 1 34.2 32.8a2.607 2.607 0 0 1 .952-3.559z" transform="translate(-.563 -.75)"/></svg>