<svg id="Группа_1" data-name="Группа 1" xmlns="http://www.w3.org/2000/svg" width="72.813" height="58.406" viewBox="0 0 72.813 58.406"><defs><style>.cls-1,.cls-2{fill:#fff;fill-rule:evenodd}.cls-2{fill:#de5749}</style></defs><path id="bc" class="cls-1" d="M61.732 2.848a4.6 4.6 0 0 0-6.319-1.421l-5.591 3.211A16.809 16.809 0 0 1 41.089 6.5S31.612 5.435 25.01 9.228 14.55 21.746 14.55 21.746a16.832 16.832 0 0 1-6.01 6.607l-5.486 3.153a4.606 4.606 0 0 0-1.959 6.177l11.12 19.374a4.6 4.6 0 0 0 6.32 1.421l5.4-3.1a16.682 16.682 0 0 1 8.729-1.842s9.571 1.117 16.219-2.7 10.512-12.659 10.512-12.659a16.711 16.711 0 0 1 5.99-6.615l5.508-3.162a4.606 4.606 0 0 0 1.959-6.177z" transform="translate(-.563 -.75)"/><path id="speech_bubble_3" data-name="speech bubble 3" class="cls-2" d="M29.69 23.086c6.01-3.47 12.975-2.657 15.558 1.816s-.2 10.91-6.206 14.38a16.963 16.963 0 0 1-2.065 1.013c-.012.022-5.132 6.317-5.132 6.317s-.108-5.154-.115-5.182c-3.559.091-6.694-1.276-8.245-3.963-2.585-4.474.195-10.912 6.205-14.381zm-1.049 10.246a1 1 0 1 1-.366 1.367 1 1 0 0 1 .366-1.367zm3.467-1.953a1 1 0 1 1-.366 1.366 1 1 0 0 1 .366-1.366zm3.5-2.021a1 1 0 1 1-.366 1.366 1 1 0 0 1 .366-1.365zm3.464-2a1 1 0 1 1-.366 1.366 1 1 0 0 1 .366-1.365z" transform="translate(-.563 -.75)"/></svg>