<svg id="Группа_1" data-name="Группа 1" xmlns="http://www.w3.org/2000/svg" width="72.813" height="58.406" viewBox="0 0 72.813 58.406"><defs><style>.cls-1,.cls-2{fill:#fff;fill-rule:evenodd}.cls-2{fill:#de5749}</style></defs><path id="bc" class="cls-1" d="M61.732 2.848a4.6 4.6 0 0 0-6.319-1.422l-5.591 3.213A16.821 16.821 0 0 1 41.089 6.5S31.612 5.434 25.01 9.228 14.55 21.746 14.55 21.746a16.838 16.838 0 0 1-6.01 6.608l-5.486 3.152a4.6 4.6 0 0 0-1.959 6.176l11.12 19.375a4.6 4.6 0 0 0 6.32 1.421l5.4-3.1a16.688 16.688 0 0 1 8.729-1.842s9.571 1.118 16.219-2.7 10.512-12.658 10.512-12.658a16.706 16.706 0 0 1 5.99-6.615l5.508-3.163a4.607 4.607 0 0 0 1.959-6.178z" transform="translate(-.563 -.75)"/><path id="iCloud_up" data-name="iCloud up" class="cls-2" d="M28.225 27.488a4.085 4.085 0 0 0-4.4 2.121 4.555 4.555 0 0 0 .4 4.833s-4.287 3.726-1.445 8.65c2.947 4.854 8.111 1.938 8.111 1.938l8.083-4.667-2.969-5.142-2.544 1.468 1.62-7.069 6.932 2.133-2.544 1.468 2.969 5.142 7.346-4.242s4.783-2.754 2.754-7.82c-2.633-5.3-8.156-3.456-8.156-3.456s-3.809-7.9-11.245-4.754c-6.294 2.827-4.912 9.397-4.912 9.397z" transform="translate(-.563 -.75)"/></svg>