<svg id="Группа_1" data-name="Группа 1" xmlns="http://www.w3.org/2000/svg" width="72.813" height="58.406" viewBox="0 0 72.813 58.406"><defs><style>.cls-1,.cls-2{fill:#fff;fill-rule:evenodd}.cls-2{fill:#de5749}</style></defs><path id="bc" class="cls-1" d="M61.732 2.848a4.6 4.6 0 0 0-6.319-1.422l-5.591 3.213A16.821 16.821 0 0 1 41.089 6.5S31.612 5.434 25.01 9.228 14.55 21.746 14.55 21.746a16.838 16.838 0 0 1-6.009 6.608l-5.487 3.152a4.6 4.6 0 0 0-1.959 6.176l11.12 19.375a4.6 4.6 0 0 0 6.32 1.421l5.4-3.1a16.688 16.688 0 0 1 8.729-1.842s9.571 1.118 16.219-2.7 10.512-12.658 10.512-12.658a16.706 16.706 0 0 1 5.99-6.615l5.508-3.163a4.607 4.607 0 0 0 1.959-6.178z" transform="translate(-.563 -.75)"/><path id="settings" class="cls-2" d="M47.995 33.005h-1.324a9.466 9.466 0 0 1-.919 2.2l1.224 1.225a2 2 0 0 1 0 2.835l-.709.709a2.006 2.006 0 0 1-2.836 0l-1.231-1.23a9.469 9.469 0 0 1-2.194.9v1.285a2 2 0 0 1-2 2.005H37a2 2 0 0 1-2.005-2.005v-1.283a9.49 9.49 0 0 1-2.194-.9l-1.231 1.231a2.005 2.005 0 0 1-2.835 0l-.709-.709a2 2 0 0 1 0-2.835l1.224-1.225a9.462 9.462 0 0 1-.919-2.2H27A2.005 2.005 0 0 1 25 31v-1a2.005 2.005 0 0 1 2-2.008h1.308a9.476 9.476 0 0 1 .887-2.187l-1.172-1.175a2.005 2.005 0 0 1 0-2.836l.709-.709a2 2 0 0 1 2.835 0l1.154 1.152a9.491 9.491 0 0 1 2.272-.95v-1.346a2.005 2.005 0 0 1 2.005-2h1a2.005 2.005 0 0 1 2 2v1.347a9.493 9.493 0 0 1 2.272.95l1.153-1.152a2 2 0 0 1 2.836 0l.709.709a2.005 2.005 0 0 1 0 2.836L45.8 25.805a9.472 9.472 0 0 1 .887 2.187h1.308A2.005 2.005 0 0 1 50 30v1a2.005 2.005 0 0 1-2.005 2.005zM37.5 25.016a5.514 5.514 0 1 0 5.514 5.514 5.514 5.514 0 0 0-5.514-5.514zm0 7.957a2.507 2.507 0 1 1 2.506-2.506 2.506 2.506 0 0 1-2.506 2.506z" transform="translate(-.563 -.75)"/></svg>