<svg class="brush-icon" xmlns="http://www.w3.org/2000/svg" width="31.78" height="29.971" viewBox="0 0 31.78 29.971"><path data-name="Big Brush" d="M8 10.861c.06-.06 1.9-2.28 1.9-2.28s1.58-2.21 4.11 1.32c3.54 2.87 5.08-.61 5.08-.61l5.63-8.136c1.3-1.89 6.77-.867 6.77-.867s1.04 4.363-.9 6.463l-8.17 5.11s-3.65 2.54-1.03 5.22a1.89 1.89 0 0 1 .35 3.34l-2.07 2.02zm20.6-8.746a1.048 1.048 0 1 1-1.04 1.047 1.049 1.049 0 0 1 1.04-1.047zM7.22 11.861L0 18.351l.52.88 3.67-3-3.17 3.25.59.67 4.41-4.75-4.25 5 3.34-2.34-2.75 2.67.41.42 1.59-1.34-1.17 1.75.42.5 4.16-5.58-3.83 5.92.33.5 2.5-2.75-2.08 3 3.75-4.17-3.33 4.58.33.25 2.92-3.5-2.42 3.84.24.36 4.84-5.53-4.5 5.83.42.42 1.33-1.5-.91 2 3.08-3.5-2.67 3.75.34.5 3.08-2.75-2.67 3.08.25.42 5.59-4.92c-.34.09-5.25 5.42-5.25 5.42l.5.5 4.25-3.83-3.67 4.25.42.33 5.16-5.5-4.66 5.92.41.58 7.27-7.05z"/></svg>