<svg class="camera-icon" xmlns="http://www.w3.org/2000/svg" width="28.938" height="20.97" viewBox="0 0 28.938 20.97"><path d="M11.988.99a1 1 0 0 0-.993-.99H6.152a1.071 1.071 0 0 0-1.076.99l-.071.86-1.964.02c-1.37 0-3.044 1.05-3.044 2.42v14.19a2.489 2.489 0 0 0 2.482 2.49H26.7a2.289 2.289 0 0 0 2.232-2.49V4.35A2.28 2.28 0 0 0 26.7 1.87H11.974zm9.427 2.91h4.523a.989.989 0 0 1 .992.99v1.57c0 .55.052.5-.5.5h-4.523a1 1 0 0 1-.992-1V4.4c.004-.55-.048-.5.5-.5zm-10.6-.08A1.225 1.225 0 1 1 9.59 5.05a1.228 1.228 0 0 1 1.226-1.23zm6.644 4.14a5.5 5.5 0 1 1-5.5 5.5 5.5 5.5 0 0 1 5.501-5.5zm.035 1.86a3.52 3.52 0 1 1-3.523 3.52A3.525 3.525 0 0 1 17.5 9.82zM3 2.94v17s-2-.55-2-1.5v-14c0-.83 1.172-1.5 2-1.5z"/></svg>