<svg data-name="Icons" xmlns="http://www.w3.org/2000/svg" viewBox="0 0 12 12"><title>dribble-icon</title><path data-name="Dribbble" d="M6 0a6 6 0 1 0 6 6 6 6 0 0 0-6-6zm3.68 3.11a4.66 4.66 0 0 1 1 2.67 9.26 9.26 0 0 0-1.91-.21 7.74 7.74 0 0 0-1.36.12q-.16-.38-.31-.73a7.29 7.29 0 0 0 2.58-1.82zM6 1.32a4.65 4.65 0 0 1 2.92 1 6.07 6.07 0 0 1-2.3 1.64A16.5 16.5 0 0 0 5 1.4a4.58 4.58 0 0 1 1-.08zm-2.07.49A14.36 14.36 0 0 1 5.6 4.36a13.52 13.52 0 0 1-3.7.52h-.45a4.7 4.7 0 0 1 2.49-3.07zM1.32 6v-.07h.51a14.73 14.73 0 0 0 4.25-.61q.14.3.27.62a7.41 7.41 0 0 0-2.63 1.55A8 8 0 0 0 2.43 9a4.65 4.65 0 0 1-1.14-3zM6 10.68a4.65 4.65 0 0 1-2.78-.92 6.76 6.76 0 0 1 1.09-1.34 6.37 6.37 0 0 1 2.43-1.47 23 23 0 0 1 .92 3.43 4.66 4.66 0 0 1-1.66.3zm2.65-.83a24 24 0 0 0-.86-3.15 6.76 6.76 0 0 1 1-.07 8.33 8.33 0 0 1 1.84.22 4.67 4.67 0 0 1-1.98 3z" fill="#4d4d4d"/></svg>