<svg xmlns="http://www.w3.org/2000/svg" width="22.031" height="25.062" viewBox="0 0 22.031 25.062"><defs><style>.cls-1{fill:#bbb;fill-rule:evenodd}</style></defs><path id="Film_2" data-name="Film 2" class="cls-1" d="M687 998.967a1.916 1.916 0 0 0-2.018 1.953v21.17a2.272 2.272 0 0 0 .957 1.9c.279.13.051-.97 1.092-.97a.9.9 0 0 1 .938.97H704a1 1 0 0 1 1.063-1.03.992.992 0 0 1 .918.99 3.14 3.14 0 0 0 1.019-1.87v-21.02a1.978 1.978 0 0 0-2-2.028zm-.031-.019H687a1 1 0 0 1 0 2h-.031a1 1 0 0 1 0-2zm.016 3a.983.983 0 0 1 .984.98v.072a.985.985 0 0 1-1.969 0v-.07a.983.983 0 0 1 .985-.98zm.031 3.03a.958.958 0 0 1 .984.95v.072a.985.985 0 0 1-1.969 0v-.07a.958.958 0 0 1 .985-.95zm-.031 3a.958.958 0 0 1 .984.95v.03a.985.985 0 1 1-1.969 0v-.03a.958.958 0 0 1 .985-.948zm-.016 2.97a1 1 0 1 1-1 1 1 1 0 0 1 1-.998zm0 3.03H687a.976.976 0 0 1 1 .97v.03a1 1 0 0 1-1 1h-.031a1 1 0 0 1-1-1v-.03a.976.976 0 0 1 1-.968zm-.016 3h.063a.983.983 0 0 1 .984.98 1.011 1.011 0 0 1-.984 1.02h-.063a1.011 1.011 0 0 1-.984-1.02.983.983 0 0 1 .984-.978zm.047 3a1 1 0 0 1 1 1v.03a1 1 0 0 1-2 0v-.03a1 1 0 0 1 1-.998zm17.969-20.948H705a1 1 0 1 1 0 2h-.031a1 1 0 1 1 0-2m.015 2.918a.983.983 0 0 1 .985.98v.072a.985.985 0 0 1-1.969 0v-.07a.983.983 0 0 1 .984-.98zm.032 3.03a.958.958 0 0 1 .984.95v.072a.985.985 0 0 1-1.969 0v-.07a.958.958 0 0 1 .985-.95zm-.032 3a.958.958 0 0 1 .985.95v.03a.985.985 0 1 1-1.969 0v-.03a.958.958 0 0 1 .984-.948zm-.015 2.97a1 1 0 1 1-1 1 1 1 0 0 1 1-.998zm0 3.03H705a.976.976 0 0 1 1 .97v.03a1 1 0 0 1-1 1h-.031a1 1 0 0 1-1-1v-.03a.976.976 0 0 1 1-.968zm-.016 3h.063a.983.983 0 0 1 .984.98 1.011 1.011 0 0 1-.984 1.02h-.063a1.011 1.011 0 0 1-.984-1.02.983.983 0 0 1 .984-.978zm.047 3a1 1 0 0 1 1 1v.03a1 1 0 0 1-2 0v-.03a1 1 0 0 1 1-.998zM689.969 1012H702a.976.976 0 0 1 1 .97v8.08a.946.946 0 0 1-1 .94h-12.031a.92.92 0 0 1-.969-.94v-8.08a.95.95 0 0 1 .969-.97zm.031-11.02h11.969a1 1 0 0 1 1 1v8.02a1 1 0 0 1-1 1H690a1 1 0 0 1-1-1v-8.02a1 1 0 0 1 1-1z" transform="translate(-684.969 -998.938)"/></svg>