<svg xmlns="http://www.w3.org/2000/svg" width="31.968" height="20.03" viewBox="0 0 31.968 20.03"><defs><style>.cls-1{fill:#fa6c65;fill-rule:evenodd}</style></defs><path id="Laptop" class="cls-1" d="M491.917 1016.92v2.08s-.031 2-1.834 2h-28.25a1.869 1.869 0 0 1-1.833-2l.09-2H463v-14a1.917 1.917 0 0 1 1.9-2.02l22.257.09a1.893 1.893 0 0 1 1.843 1.85v14h2.917zM487.5 1019h2a.5.5 0 0 1 0 1h-2a.5.5 0 0 1 0-1zm-14.5-.17h7a.671.671 0 1 1 0 1.17h-7a.671.671 0 1 1 0-1.17zm-8-15.83h22v13h-22v-13z" transform="translate(-459.938 -1000.97)"/></svg>