<svg xmlns="http://www.w3.org/2000/svg" width="15" height="10" viewBox="0 0 15 10"><defs><style>.cls-1{fill:#888;fill-rule:evenodd}</style></defs><path id="Phone" class="cls-1" d="M1140.7 40.141a4.379 4.379 0 0 1 1.93 1.452l1.29 3.013v1.478a1.013 1.013 0 0 1-1.03.9h-8.82a.85.85 0 0 1-.99-.9v-1.553c-.02.283 1.21-2.947 1.21-2.947a3.444 3.444 0 0 1 1.99-1.421v-.472a.831.831 0 0 1 .96-.833h2.48a.949.949 0 0 1 1.01.9zm-5.81-1.406c.11.231.42.733.42.733l-3.52 1.629-.61-1.109a1.078 1.078 0 0 1 .61-1.619l1.03-.505a15.551 15.551 0 0 1 5.31-.855h.62c4.03 0 5.43.855 5.43.855l1.03.505a1.078 1.078 0 0 1 .61 1.619l-.65 1.109-3.48-1.629a4.34 4.34 0 0 0 .41-.706c.08-.172.09-.035-.02-.116a6.8 6.8 0 0 0-3.21-.734h-.74a10.289 10.289 0 0 0-3.19.635c-.08.042-.16.002-.05.188z" transform="translate(-1131 -37)"/></svg>