<svg class="brush-icon" xmlns="http://www.w3.org/2000/svg" width="31.78" height="29.971" viewBox="0 0 31.78 29.971">
  <metadata><?xpacket begin="﻿" id="W5M0MpCehiHzreSzNTczkc9d"?>
<x:xmpmeta xmlns:x="adobe:ns:meta/" x:xmptk="Adobe XMP Core 5.6-c138 79.159824, 2016/09/14-01:09:01        ">
   <rdf:RDF xmlns:rdf="http://www.w3.org/1999/02/22-rdf-syntax-ns#">
      <rdf:Description rdf:about=""/>
   </rdf:RDF>
</x:xmpmeta>                        
<?xpacket end="w"?></metadata>
<defs>
  </defs>
  <path id="Big_Brush" data-name="Big Brush" d="M1128.16,1007.33c0.06-.06,1.9-2.28,1.9-2.28s1.58-2.21,4.11,1.32c3.54,2.87,5.08-.61,5.08-0.61l5.63-8.136c1.3-1.89,6.77-.867,6.77-0.867s1.04,4.363-.9,6.463l-8.17,5.11s-3.65,2.54-1.03,5.22a1.89,1.89,0,0,1,.35,3.34l-2.07,2.02Zm20.6-8.746a1.048,1.048,0,1,1-1.04,1.047A1.049,1.049,0,0,1,1148.76,998.584Zm-21.38,9.746-7.22,6.49,0.52,0.88,3.67-3-3.17,3.25,0.59,0.67,4.41-4.75-4.25,5,3.34-2.34-2.75,2.67,0.41,0.42,1.59-1.34-1.17,1.75,0.42,0.5,4.16-5.58-3.83,5.92,0.33,0.5,2.5-2.75-2.08,3,3.75-4.17-3.33,4.58,0.33,0.25,2.92-3.5-2.42,3.84,0.24,0.36,4.84-5.53-4.5,5.83,0.42,0.42,1.33-1.5-0.91,2,3.08-3.5-2.67,3.75,0.34,0.5,3.08-2.75-2.67,3.08,0.25,0.42,5.59-4.92c-0.34.09-5.25,5.42-5.25,5.42l0.5,0.5,4.25-3.83-3.67,4.25,0.42,0.33,5.16-5.5-4.66,5.92,0.41,0.58,7.27-7.05Z" transform="translate(-1120.16 -996.469)"/>
</svg>
