<svg class="camera-icon" xmlns="http://www.w3.org/2000/svg" width="28.938" height="20.97" viewBox="0 0 28.938 20.97">
  <metadata><?xpacket begin="﻿" id="W5M0MpCehiHzreSzNTczkc9d"?>
<x:xmpmeta xmlns:x="adobe:ns:meta/" x:xmptk="Adobe XMP Core 5.6-c138 79.159824, 2016/09/14-01:09:01        ">
   <rdf:RDF xmlns:rdf="http://www.w3.org/1999/02/22-rdf-syntax-ns#">
      <rdf:Description rdf:about=""/>
   </rdf:RDF>
</x:xmpmeta>                      
<?xpacket end="w"?></metadata>
<defs>
  </defs>
  <path id="Camera" d="M913.988,1001.05a1,1,0,0,0-.993-0.99h-4.843a1.071,1.071,0,0,0-1.076.99l-0.071.86-1.964.02c-1.37,0-3.044,1.05-3.044,2.42v14.19a2.489,2.489,0,0,0,2.482,2.49H928.7a2.289,2.289,0,0,0,2.232-2.49v-14.13a2.28,2.28,0,0,0-2.232-2.48H913.974Zm9.427,2.91h4.523a0.989,0.989,0,0,1,.992.99v1.57c0,0.55.052,0.5-.5,0.5h-4.523a1,1,0,0,1-.992-1v-1.56C922.919,1003.91,922.867,1003.96,923.415,1003.96Zm-10.6-.08a1.225,1.225,0,1,1-1.225,1.23A1.228,1.228,0,0,1,912.816,1003.88Zm6.644,4.14a5.5,5.5,0,1,1-5.5,5.5A5.5,5.5,0,0,1,919.46,1008.02Zm0.035,1.86a3.52,3.52,0,1,1-3.523,3.52A3.525,3.525,0,0,1,919.5,1009.88ZM905,1003v17s-2-.55-2-1.5v-14C903,1003.67,904.172,1003,905,1003Z" transform="translate(-902 -1000.06)"/>
</svg>
