<svg id="c6d2b310-b509-4bc4-97c2-253de358210e" data-name="Icons" xmlns="http://www.w3.org/2000/svg" viewBox="0 0 12 12"><title>dribble-icon</title><path id="46c860c0-730b-4abf-9b4c-b4c75d4e6c31" data-name="Dribbble" d="M1427.71,331.86a6,6,0,1,0,6,6A6,6,0,0,0,1427.71,331.86Zm3.68,3.11a4.66,4.66,0,0,1,1,2.67,9.26,9.26,0,0,0-1.91-.21h0a7.74,7.74,0,0,0-1.36.12q-.16-.38-.31-.73A7.29,7.29,0,0,0,1431.39,335Zm-3.68-1.79a4.65,4.65,0,0,1,2.92,1,6.07,6.07,0,0,1-2.3,1.64,16.5,16.5,0,0,0-1.62-2.56A4.58,4.58,0,0,1,1427.71,333.18Zm-2.07.49a14.36,14.36,0,0,1,1.67,2.55,13.52,13.52,0,0,1-3.7.52h-.45A4.7,4.7,0,0,1,1425.65,333.67Zm-2.61,4.19s0,0,0-.07h.51a14.73,14.73,0,0,0,4.25-.61q.14.3.27.62a7.41,7.41,0,0,0-2.63,1.55,8,8,0,0,0-1.29,1.51A4.65,4.65,0,0,1,1423,337.86Zm4.68,4.68a4.65,4.65,0,0,1-2.78-.92,6.76,6.76,0,0,1,1.09-1.34,6.37,6.37,0,0,1,2.43-1.47,23,23,0,0,1,.92,3.43A4.66,4.66,0,0,1,1427.71,342.54Zm2.65-.83a24,24,0,0,0-.86-3.15,6.76,6.76,0,0,1,1-.07h0a8.33,8.33,0,0,1,1.84.22A4.67,4.67,0,0,1,1430.36,341.71Z" transform="translate(-1421.71 -331.86)" style="fill:#4d4d4d"/></svg>