<svg xmlns="http://www.w3.org/2000/svg" width="22.031" height="25.062" viewBox="0 0 22.031 25.062">
  <metadata><?xpacket begin="﻿" id="W5M0MpCehiHzreSzNTczkc9d"?>
<x:xmpmeta xmlns:x="adobe:ns:meta/" x:xmptk="Adobe XMP Core 5.6-c138 79.159824, 2016/09/14-01:09:01        ">
   <rdf:RDF xmlns:rdf="http://www.w3.org/1999/02/22-rdf-syntax-ns#">
      <rdf:Description rdf:about=""/>
   </rdf:RDF>
</x:xmpmeta>
                                                                                                    
                                                                                                    
                                                                                                    
                                                                                                    
                                                                                                    
                                                                                                    
                                                                                                    
                                                                                                    
                                                                                                    
                                                                                                    
                                                                                                    
                                                                                                    
                                                                                                    
                                                                                                    
                                                                                                    
                                                                                                    
                                                                                                    
                                                                                                    
                                                                                                    
                                                                                                    
                           
<?xpacket end="w"?></metadata>
<defs>
    <style>
      .cls-1 {
        fill: #bbb;
        fill-rule: evenodd;
      }
    </style>
  </defs>
  <path id="Film_2" data-name="Film 2" class="cls-1" d="M687,998.967a1.916,1.916,0,0,0-2.018,1.953v21.17a2.272,2.272,0,0,0,.957,1.9c0.279,0.13.051-.97,1.092-0.97a0.9,0.9,0,0,1,.938.97H704a1,1,0,0,1,1.063-1.03,0.992,0.992,0,0,1,.918.99,3.14,3.14,0,0,0,1.019-1.87v-21.02a1.978,1.978,0,0,0-2-2.028Zm-0.031-.019H687a1,1,0,0,1,0,2h-0.031A1,1,0,0,1,686.969,998.948Zm0.016,3a0.983,0.983,0,0,1,.984.98V1003a0.985,0.985,0,0,1-1.969,0v-0.07A0.983,0.983,0,0,1,686.985,1001.95Zm0.031,3.03a0.958,0.958,0,0,1,.984.95V1006a0.985,0.985,0,0,1-1.969,0v-0.07A0.958,0.958,0,0,1,687.016,1004.98Zm-0.031,3a0.958,0.958,0,0,1,.984.95v0.03a0.985,0.985,0,1,1-1.969,0v-0.03A0.958,0.958,0,0,1,686.985,1007.98Zm-0.016,2.97a1,1,0,1,1-1,1A1,1,0,0,1,686.969,1010.95Zm0,3.03H687a0.976,0.976,0,0,1,1,.97v0.03a1,1,0,0,1-1,1h-0.031a1,1,0,0,1-1-1v-0.03A0.976,0.976,0,0,1,686.969,1013.98Zm-0.016,3h0.063a0.983,0.983,0,0,1,.984.98,1.011,1.011,0,0,1-.984,1.02h-0.063a1.011,1.011,0,0,1-.984-1.02A0.983,0.983,0,0,1,686.953,1016.98Zm0.047,3a1,1,0,0,1,1,1v0.03a1,1,0,0,1-2,0v-0.03A1,1,0,0,1,687,1019.98Zm17.969-20.948H705a1,1,0,1,1,0,2h-0.031a1,1,0,1,1,0-2m0.015,2.918a0.983,0.983,0,0,1,.985.98V1003a0.985,0.985,0,0,1-1.969,0v-0.07A0.983,0.983,0,0,1,704.984,1001.95Zm0.032,3.03a0.958,0.958,0,0,1,.984.95V1006a0.985,0.985,0,0,1-1.969,0v-0.07A0.958,0.958,0,0,1,705.016,1004.98Zm-0.032,3a0.958,0.958,0,0,1,.985.95v0.03a0.985,0.985,0,1,1-1.969,0v-0.03A0.958,0.958,0,0,1,704.984,1007.98Zm-0.015,2.97a1,1,0,1,1-1,1A1,1,0,0,1,704.969,1010.95Zm0,3.03H705a0.976,0.976,0,0,1,1,.97v0.03a1,1,0,0,1-1,1h-0.031a1,1,0,0,1-1-1v-0.03A0.976,0.976,0,0,1,704.969,1013.98Zm-0.016,3h0.063a0.983,0.983,0,0,1,.984.98,1.011,1.011,0,0,1-.984,1.02h-0.063a1.011,1.011,0,0,1-.984-1.02A0.983,0.983,0,0,1,704.953,1016.98Zm0.047,3a1,1,0,0,1,1,1v0.03a1,1,0,0,1-2,0v-0.03A1,1,0,0,1,705,1019.98ZM689.969,1012H702a0.976,0.976,0,0,1,1,.97v8.08a0.946,0.946,0,0,1-1,.94H689.969a0.92,0.92,0,0,1-.969-0.94v-8.08A0.95,0.95,0,0,1,689.969,1012ZM690,1000.98h11.969a1,1,0,0,1,1,1V1010a1,1,0,0,1-1,1H690a1,1,0,0,1-1-1v-8.02A1,1,0,0,1,690,1000.98Z" transform="translate(-684.969 -998.938)"/>
</svg>
