<svg xmlns="http://www.w3.org/2000/svg" width="31.968" height="20.03" viewBox="0 0 31.968 20.03">
  <metadata><?xpacket begin="﻿" id="W5M0MpCehiHzreSzNTczkc9d"?>
<x:xmpmeta xmlns:x="adobe:ns:meta/" x:xmptk="Adobe XMP Core 5.6-c138 79.159824, 2016/09/14-01:09:01        ">
   <rdf:RDF xmlns:rdf="http://www.w3.org/1999/02/22-rdf-syntax-ns#">
      <rdf:Description rdf:about=""/>
   </rdf:RDF>
</x:xmpmeta>
                                                                                                    
                                                                                                    
                                                                                                    
                                                                                                    
                                                                                                    
                                                                                                    
                                                                                                    
                                                                                                    
                                                                                                    
                                                                                                    
                                                                                                    
                                                                                                    
                                                                                                    
                                                                                                    
                                                                                                    
                                                                                                    
                                                                                                    
                                                                                                    
                                                                                                    
                                                                                                    
                           
<?xpacket end="w"?></metadata>
<defs>
    <style>
      .cls-1 {
        fill: #fa6c65;
        fill-rule: evenodd;
      }
    </style>
  </defs>
  <path id="Laptop" class="cls-1" d="M491.917,1016.92V1019s-0.031,2-1.834,2h-28.25a1.869,1.869,0,0,1-1.833-2l0.09-2H463v-14a1.917,1.917,0,0,1,1.9-2.02l22.257,0.09a1.893,1.893,0,0,1,1.843,1.85v14h2.917ZM487.5,1019h2a0.5,0.5,0,0,1,0,1h-2A0.5,0.5,0,0,1,487.5,1019Zm-14.5-.17h7a0.671,0.671,0,1,1,0,1.17h-7A0.671,0.671,0,1,1,473,1018.83ZM465,1003h22v13H465v-13Z" transform="translate(-459.938 -1000.97)"/>
</svg>
