<svg xmlns="http://www.w3.org/2000/svg" width="15" height="10" viewBox="0 0 15 10">
  <metadata><?xpacket begin="﻿" id="W5M0MpCehiHzreSzNTczkc9d"?>
<x:xmpmeta xmlns:x="adobe:ns:meta/" x:xmptk="Adobe XMP Core 5.6-c138 79.159824, 2016/09/14-01:09:01        ">
   <rdf:RDF xmlns:rdf="http://www.w3.org/1999/02/22-rdf-syntax-ns#">
      <rdf:Description rdf:about=""/>
   </rdf:RDF>
</x:xmpmeta>                          
<?xpacket end="w"?></metadata>
<defs>
    <style>
      .cls-1 {
        fill: #888;
        fill-rule: evenodd;
      }
    </style>
  </defs>
  <path id="Phone" class="cls-1" d="M1140.7,40.141a4.379,4.379,0,0,1,1.93,1.452l1.29,3.013v1.478a1.013,1.013,0,0,1-1.03.9h-8.82a0.85,0.85,0,0,1-.99-0.9V44.531c-0.02.283,1.21-2.947,1.21-2.947a3.444,3.444,0,0,1,1.99-1.421V39.691a0.831,0.831,0,0,1,.96-0.833h2.48a0.949,0.949,0,0,1,1.01.9Zm-5.81-1.406c0.11,0.231.42,0.733,0.42,0.733l-3.52,1.629-0.61-1.109a1.078,1.078,0,0,1,.61-1.619l1.03-.505a15.551,15.551,0,0,1,5.31-.855h0.62c4.03,0,5.43.855,5.43,0.855l1.03,0.505a1.078,1.078,0,0,1,.61,1.619l-0.65,1.109-3.48-1.629a4.34,4.34,0,0,0,.41-0.706c0.08-.172.09-0.035-0.02-0.116a6.8,6.8,0,0,0-3.21-.734h-0.74a10.289,10.289,0,0,0-3.19.635C1134.86,38.589,1134.78,38.549,1134.89,38.735Z" transform="translate(-1131 -37)"/>
</svg>
