<svg id="5efe972e-16f9-4372-a93a-548bb5397b6d" data-name="icons" xmlns="http://www.w3.org/2000/svg" viewBox="0 0 9.31 12"><title>pinterest-icon</title><path d="M365.83,147.86a10.6,10.6,0,0,1-1.16,3.36,2,2,0,0,1-.68.8c-.47-2.39.51-4.41.89-6.42-.49-1-.19-2.69.86-2.88,1.52-.28,1.12,1.56.86,2.41a3.9,3.9,0,0,0-.36,1.43c.08,1.08,1.44,1.15,2.14.59a4.26,4.26,0,0,0,1.19-3.6c-.15-1.92-2.33-2.88-4.25-2.11a3.17,3.17,0,0,0-2,2.65,2.45,2.45,0,0,0,.36,1.67c0,.06.19.17.21.33a1.4,1.4,0,0,1-.33.92,2.34,2.34,0,0,1-1.58-2.29,4.5,4.5,0,0,1,4.37-4.67c2.63-.19,4.71,1.33,4.91,3.54a5.39,5.39,0,0,1-1.37,4.19,3.13,3.13,0,0,1-3.39.68A2.56,2.56,0,0,1,365.83,147.86Z" transform="translate(-361.95 -140.03)" style="fill:#fff;fill-rule:evenodd"/></svg>