<svg id="717a9a16-a67e-485c-974d-57c0b19d0d55" data-name="Icons" xmlns="http://www.w3.org/2000/svg" viewBox="0 0 8.93 12"><title>t-icon</title><path id="f2e07e12-461b-41f2-8788-c3679515f088" data-name="Twitter" d="M1563.68,1396h-3a1.48,1.48,0,0,1-1.48-1.49v-1.05h4.22a1.39,1.39,0,0,0,0-2.78h-4.21v-2.18a1.45,1.45,0,0,0-.44-1.06,1.43,1.43,0,0,0-1-.44,1.46,1.46,0,0,0-1.07.43,1.44,1.44,0,0,0-.44,1.07v6a4.49,4.49,0,0,0,4.48,4.49h3a1.5,1.5,0,0,0,0-3Z" transform="translate(-1556.25 -1387)" style="fill:#4d4d4d"/></svg>