<?xml version="1.0" standalone="no"?>
<!DOCTYPE svg PUBLIC "-//W3C//DTD SVG 20010904//EN"
 "http://www.w3.org/TR/2001/REC-SVG-20010904/DTD/svg10.dtd">
<svg version="1.0" xmlns="http://www.w3.org/2000/svg"
 width="255.000000pt" height="255.000000pt" viewBox="0 0 255.000000 255.000000"
 preserveAspectRatio="xMidYMid meet">
<metadata>
Created by potrace 1.11, written by Peter Selinger 2001-2013
</metadata>
<g transform="translate(0.000000,255.000000) scale(0.100000,-0.100000)"
fill="#000000" stroke="none">
<path d="M1953 2290 c-13 -5 -70 -37 -128 -70 -201 -116 -239 -125 -505 -121
-94 2 -226 -10 -272 -25 -9 -3 -25 -7 -35 -9 -192 -44 -392 -232 -513 -481
-31 -66 -96 -153 -143 -194 -16 -14 -68 -48 -115 -77 -48 -29 -113 -68 -144
-87 -95 -58 -122 -153 -67 -244 12 -20 31 -53 42 -72 90 -159 331 -577 343
-595 20 -31 91 -65 135 -65 25 0 73 21 167 75 200 113 219 118 452 121 205 2
244 5 350 31 223 54 374 193 531 488 75 140 155 218 318 310 150 85 176 113
176 194 0 39 -7 67 -21 91 -12 19 -33 55 -47 80 -13 25 -75 132 -136 239 -61
107 -111 195 -111 196 0 1 -24 42 -53 91 -40 66 -63 95 -93 111 -40 23 -93 28
-131 13z"/>
</g>
</svg>
