<?xml version="1.0" encoding="utf-8"?>
<!-- Generator: Adobe Illustrator 21.0.0, SVG Export Plug-In . SVG Version: 6.00 Build 0)  -->
<svg version="1.1" id="Слой_1" xmlns="http://www.w3.org/2000/svg" xmlns:xlink="http://www.w3.org/1999/xlink" x="0px" y="0px"
	 viewBox="0 0 42.4 37.8" style="enable-background:new 0 0 42.4 37.8;" xml:space="preserve">
<style type="text/css">
	.st0{clip-path:url(#SVGID_2_);fill:#A3B1BF;}
</style>
<g>
	<defs>
		<rect id="SVGID_1_" width="42.4" height="37.8"/>
	</defs>
	<clipPath id="SVGID_2_">
		<use xlink:href="#SVGID_1_"  style="overflow:visible;"/>
	</clipPath>
	<path class="st0" d="M24.1,0c-1.1,0-2,0.3-2.7,1c-1.6,1.6-1.6,3.3,0,5.2L33.5,19L21.4,31.6c-1.6,1.9-1.6,3.6,0,5.2
		c0.7,0.7,1.6,1,2.6,1c1,0,1.9-0.3,2.6-1l14.7-15.3c0.7-0.7,1-1.5,1-2.5c0-1-0.3-1.9-1-2.6L26.6,1C26.1,0.3,25.2,0,24.1,0"/>
	<path class="st0" d="M3.5,15.4h27.9c2,0,3.5,1.6,3.5,3.5s-1.6,3.5-3.5,3.5H3.5c-2,0-3.5-1.6-3.5-3.5S1.6,15.4,3.5,15.4"/>
	
</g>

</svg>
