<?xml version="1.0" encoding="utf-8"?>
<!-- Generator: Adobe Illustrator 21.0.0, SVG Export Plug-In . SVG Version: 6.00 Build 0)  -->
<svg version="1.1" id="Слой_1" xmlns="http://www.w3.org/2000/svg" xmlns:xlink="http://www.w3.org/1999/xlink" x="0px" y="0px"
	 viewBox="0 0 56 53.4" style="enable-background:new 0 0 56 53.4;" xml:space="preserve">
<style type="text/css">
	.st0{clip-path:url(#SVGID_2_);fill:#00bc9c;}
</style>
<g>
	<defs>
		<rect id="SVGID_1_" y="0" width="56" height="53.4"/>
	</defs>
	<clipPath id="SVGID_2_">
		<use xlink:href="#SVGID_1_"  style="overflow:visible;"/>
	</clipPath>
	<path class="st0" d="M22.3,21.6l5.7-11.5l5.7,11.5l12.7,1.8l-9.2,9L39.3,45l-11.4-5.9L16.6,45l2.1-12.6l-9.2-9L22.3,21.6z
		 M11.6,53.4c0.4,0,0.9-0.2,1.3-0.5L27.9,45L43.1,53c0.4,0.3,0.9,0.5,1.4,0.5c0.9,0,1.4-0.6,1.4-1.7c0-0.1,0-0.2,0-0.4
		c0-0.2,0-0.2,0-0.3l-2.9-16.8l12.3-11.9c0.5-0.6,0.8-1.1,0.8-1.7c0-0.7-0.6-1.1-1.8-1.5l-16.9-2.5L29.6,1.4c-0.5-0.9-1-1.4-1.7-1.4
		c-0.7,0-1.2,0.5-1.6,1.4l-7.6,15.3L1.8,19.2C0.6,19.5,0,20,0,20.7c0,0.5,0.3,1.1,0.8,1.7l12.2,11.9l-2.9,16.8c0,0.1,0,0.2,0,0.4
		c0,0.2,0,0.2,0,0.3C10.1,52.9,10.6,53.4,11.6,53.4"/>
</g>
</svg>
