<?xml version="1.0" encoding="utf-8"?>
<!-- Generator: Adobe Illustrator 21.0.0, SVG Export Plug-In . SVG Version: 6.00 Build 0)  -->
<svg version="1.1" id="Слой_1" xmlns="http://www.w3.org/2000/svg" xmlns:xlink="http://www.w3.org/1999/xlink" x="0px" y="0px"
	 viewBox="0 0 45.5 65" style="enable-background:new 0 0 45.5 65;" xml:space="preserve">
<style type="text/css">
	.st0{clip-path:url(#SVGID_2_);fill:#00bc9c;}
</style>
<g>
	<defs>
		<rect id="SVGID_1_" y="0" width="45.5" height="65"/>
	</defs>
	<clipPath id="SVGID_2_">
		<use xlink:href="#SVGID_1_"  style="overflow:visible;"/>
	</clipPath>
	<path class="st0" d="M22.7,6.8c9.9,0,15.2,4.2,15.9,12.7c0.1,1.1-0.1,2.5-0.5,4.1c-0.2,0.7-0.9,2-2.1,4c0,0.1-0.3,0.5-0.8,1.2
		l-1.6,2.2c-0.5,0.7-0.8,1.1-0.8,1.2c-3.8,5.1-6.2,9.7-7.3,13.8h-5.3c-1-4-3.5-8.6-7.3-13.8c-0.1-0.1-0.4-0.6-1-1.4
		c-0.6-0.9-0.9-1.3-1-1.4c0-0.1-0.3-0.5-0.9-1.2C9.4,27.4,9.1,27,9,26.9l-0.3-0.4c-0.1-0.3-0.3-0.5-0.4-0.8C8.2,25.5,8.1,25.2,8,25
		c-0.1-0.3-0.2-0.4-0.2-0.5c0,0-0.1-0.4-0.4-1.2c-0.3-0.7-0.4-1.1-0.3-1.2c0,0,0-0.5-0.1-1.3c-0.1-0.8-0.1-1.2,0-1.3
		C7.6,11,12.9,6.8,22.7,6.8 M31.5,51.7c0-2.6,0.5-5.1,1.6-7.4c0.5-1.1,1.1-2.2,1.8-3.3c0.7-1.1,1.3-2.1,1.8-2.8
		c0.5-0.7,1.2-1.7,2.2-2.9l2.1-2.7c3.3-4.4,4.7-8.9,4.4-13.6c-0.5-5.3-2.5-9.8-6.2-13.4C35.5,1.9,30,0,22.7,0
		C15.4,0,9.9,1.9,6.2,5.6C2.4,9.4,0.4,13.8,0.1,19c-0.3,3,0.3,6,1.6,8.9c1.3,2.9,3,5.4,4.9,7.4c1.9,2.1,3.7,4.6,5.2,7.6
		c1.5,2.9,2.2,5.9,2.2,8.9H31.5z M13.6,62.4c3,1.8,6.1,2.6,9.1,2.6c3.1,0.1,6.2-0.8,9.2-2.6v-6.8H13.6V62.4z"/>
</g>
</svg>
