<?xml version="1.0" encoding="utf-8"?>
<!-- Generator: Adobe Illustrator 21.0.0, SVG Export Plug-In . SVG Version: 6.00 Build 0)  -->
<svg version="1.1" id="Слой_1" xmlns="http://www.w3.org/2000/svg" xmlns:xlink="http://www.w3.org/1999/xlink" x="0px" y="0px"
	 viewBox="0 0 32.5 52" style="enable-background:new 0 0 32.5 52;" xml:space="preserve">
<style type="text/css">
	.st0{clip-path:url(#SVGID_2_);fill:#A3B1BF;}
</style>
<g>
	<defs>
		<rect id="SVGID_1_" width="32.5" height="52"/>
	</defs>
	<clipPath id="SVGID_2_">
		<use xlink:href="#SVGID_1_"  style="overflow:visible;"/>
	</clipPath>
	<path class="st0" d="M7.5,16.4c0-2.4,0.9-4.5,2.6-6.2c1.7-1.7,3.8-2.5,6.1-2.5c2.4,0,4.5,0.9,6.2,2.6c1.7,1.7,2.6,3.8,2.6,6.1
		c0,2.4-0.9,4.5-2.6,6.2c-1.8,1.7-3.8,2.6-6.2,2.6c-2.4,0-4.4-0.9-6.1-2.6C8.4,20.9,7.5,18.8,7.5,16.4 M4.7,4.7
		C1.6,7.9,0,11.7,0,16.3c0,5.5,1.9,11.9,5.7,19.2c1.4,2.7,3.1,5.7,5.2,8.9c2.1,3.3,3.9,5.8,5.4,7.6l4-5.5c2.7-3.6,5.5-8.5,8.2-14.5
		c2.7-6,4-11.2,4-15.8c0-4.5-1.6-8.3-4.7-11.5C24.6,1.6,20.8,0,16.3,0C11.7,0,7.9,1.6,4.7,4.7"/>
</g>
</svg>
