<?xml version="1.0" encoding="utf-8"?>
<!-- Generator: Adobe Illustrator 21.0.0, SVG Export Plug-In . SVG Version: 6.00 Build 0)  -->
<svg version="1.1" id="Layer_1" xmlns="http://www.w3.org/2000/svg" xmlns:xlink="http://www.w3.org/1999/xlink" x="0px" y="0px"
	 viewBox="0 0 61.6 51.4" style="enable-background:new 0 0 61.6 51.4;" xml:space="preserve">
<style type="text/css">
	.st0{clip-path:url(#SVGID_2_);fill:#A3B1BF;}
</style>
<g>
	<defs>
		<rect id="SVGID_1_" width="61.6" height="51.4"/>
	</defs>
	<clipPath id="SVGID_2_">
		<use xlink:href="#SVGID_1_"  style="overflow:visible;"/>
	</clipPath>
	<path class="st0" d="M5.1,5.1h51.4v2.2c0,0.8-0.2,1.5-0.5,2.1c-1,2.5-2.5,4.4-4.4,5.8L38.2,25.4l-3.4,2.7c-1.6,1.1-2.8,1.6-3.8,1.6
		h-0.1c-0.6,0-1.2-0.2-1.8-0.5c-1.1-0.6-2.4-1.4-4-2.6l-7.4-5.7l-7.5-5.7c-1.2-0.9-2.3-2.1-3.3-3.6C5.7,10,5.1,8.6,5.1,7.3V5.1z
		 M5.1,46.2V17.7C5.9,18.5,6.5,19,7,19.4c7.7,5.8,12.4,9.4,14.2,10.8c1.1,1,2.6,2,4.5,3.2c1.5,1,3.2,1.5,5.1,1.5
		c2,0,3.7-0.5,5.3-1.5c1.6-1,3.1-2.1,4.4-3.2c3.7-3,8.5-6.6,14.2-10.8c0.6-0.3,1.2-0.9,2-1.6v28.5H5.1z M57.8,51.4
		c1,0,1.9-0.4,2.7-1.1c0.7-0.8,1.1-1.7,1.1-2.7V3.8c0-1-0.4-1.9-1.1-2.7C59.7,0.4,58.8,0,57.8,0h-54c-1,0-1.9,0.4-2.7,1.1
		C0.4,1.9,0,2.8,0,3.8v43.7c0,1,0.4,1.9,1.1,2.7c0.8,0.8,1.7,1.1,2.7,1.1H57.8z"/>
</g>
</svg>
