<?xml version="1.0" encoding="utf-8"?>
<!-- Generator: Adobe Illustrator 21.0.0, SVG Export Plug-In . SVG Version: 6.00 Build 0)  -->
<svg version="1.1" id="Layer_1" xmlns="http://www.w3.org/2000/svg" xmlns:xlink="http://www.w3.org/1999/xlink" x="0px" y="0px"
	 viewBox="0 0 37.7 63.7" style="enable-background:new 0 0 37.7 63.7;" xml:space="preserve">
<style type="text/css">
	.st0{clip-path:url(#SVGID_2_);fill:#A3B1BF;}
</style>
<g>
	<defs>
		<rect id="SVGID_1_" width="37.7" height="63.7"/>
	</defs>
	<clipPath id="SVGID_2_">
		<use xlink:href="#SVGID_1_"  style="overflow:visible;"/>
	</clipPath>
	<path class="st0" d="M5.2,8.5h27.3v42.9H5.2V8.5z M15.7,60.2c-1-0.6-1.4-1.4-1.4-2.3c0-0.9,0.5-1.7,1.4-2.3c1-0.6,2-0.9,3.1-0.9
		c1.2,0,2.3,0.3,3.2,0.9c0.9,0.6,1.4,1.4,1.4,2.4c0,1-0.5,1.7-1.4,2.3c-0.9,0.6-2,0.9-3.2,0.9C17.7,61.1,16.7,60.8,15.7,60.2 M6.5,0
		C4.7,0,3.2,0.6,1.9,1.9C0.6,3.2,0,4.7,0,6.5v50.7c0,1.7,0.6,3.3,2,4.5c1.3,1.3,2.8,2,4.5,2h24.7c1.8,0,3.3-0.6,4.6-1.9
		c1.3-1.3,1.9-2.8,1.9-4.6V6.5c0-1.8-0.6-3.4-1.9-4.6C34.6,0.6,33,0,31.2,0H6.5z"/>
</g>
</svg>
