<?xml version="1.0" encoding="utf-8"?>
<!-- Generator: Adobe Illustrator 21.0.0, SVG Export Plug-In . SVG Version: 6.00 Build 0)  -->
<svg version="1.1" id="Слой_1" xmlns="http://www.w3.org/2000/svg" xmlns:xlink="http://www.w3.org/1999/xlink" x="0px" y="0px"
	 viewBox="0 0 60.2 53.4" style="enable-background:new 0 0 60.2 53.4;" xml:space="preserve">
<style type="text/css">
	.st0{clip-path:url(#SVGID_2_);fill:#00bc9c;}
</style>
<g>
	<defs>
		<rect id="SVGID_1_" y="0" width="60.2" height="53.4"/>
	</defs>
	<clipPath id="SVGID_2_">
		<use xlink:href="#SVGID_1_"  style="overflow:visible;"/>
	</clipPath>
	<path class="st0" d="M16.3,5.3c1.1,0,2.3,0.3,3.5,0.8c3.3,1.5,6,3.7,8.3,6.6c0.5,0.7,1.2,1,2,1c0.8,0,1.5-0.3,2.1-1
		c1.3-1.6,2.8-3.1,4.7-4.5c2.6-2,4.9-2.9,7-2.9c7.3,0,10.9,3.7,10.9,11.2c0,1.4-0.3,2.9-0.9,4.4c-1.1,2.6-2.5,4.8-4.2,6.4L40,37.1
		L30.1,47L21,37.9L10.4,27.3c-0.6-0.7-1.3-1.5-2.1-2.7c-2-2.9-3-5.6-3-8.1C5.3,9.1,9,5.3,16.3,5.3 M1.2,22.5c1.3,3.1,3,5.8,5.2,8.3
		c0.5,0.6,1,1.1,1.3,1.4l20.6,20.5c0.5,0.5,1.1,0.8,1.8,0.8c0.7,0,1.3-0.3,2-0.8l20.5-20.5l0.3-0.1c0.1-0.1,0.2-0.3,0.4-0.6
		c0.2-0.2,0.4-0.5,0.7-0.7c0.9-1,1.8-2.1,2.7-3.4c2.4-3.7,3.6-7.3,3.6-10.8c0-3-0.5-5.6-1.4-7.7C56.1,2.9,51.1,0,43.9,0
		c-1.5,0-2.9,0.2-4.2,0.7c-3.3,1.2-6.5,3.3-9.6,6.4C27.9,5,26,3.4,24.4,2.5C21.6,0.8,18.9,0,16.3,0c-5.2,0-9.2,1.5-12,4.4
		C1.4,7.3,0,11.3,0,16.5C0,18.5,0.4,20.5,1.2,22.5"/>
</g>
</svg>
