<?xml version="1.0" encoding="utf-8"?>
<!-- Generator: Adobe Illustrator 21.0.0, SVG Export Plug-In . SVG Version: 6.00 Build 0)  -->
<svg version="1.1" id="Layer_1" xmlns="http://www.w3.org/2000/svg" xmlns:xlink="http://www.w3.org/1999/xlink" x="0px" y="0px"
	 viewBox="0 0 121.3 30" style="enable-background:new 0 0 121.3 30;" xml:space="preserve">
<style type="text/css">
	.st0{fill:#506A85;}
</style>
<g>
	<g>
		<path class="st0" d="M56.2,30h22v-6.7H63.9v-5.1h13.9v-6.7H63.9V6.7h14.2V0h-22V30z M29.8,30h22v-6.7H37.5v-5.1h13.9v-6.7H37.5
			V6.7h14.2V0h-22V30z M25.4,10c0-5.6-3.8-10-10.4-10H0v6.7h13.8c2,0,3.7,1.2,3.7,3.2c0,2.1-1.7,3.2-3.7,3.2H0V30h7.7V19.9h4l5,10.1
			h8.9l-6.1-11C22.2,18,25.4,15.2,25.4,10z M102.7,16.5L90.5,0h-8v30h7.7V12.6L103,30h7.5V0h-7.8V16.5z M114.6,23.3V30h6.7v-6.7
			H114.6z"/>
	</g>
</g>
</svg>
