<?xml version="1.0" encoding="utf-8"?>
<svg version="1.1" id="Слой_1" xmlns="http://www.w3.org/2000/svg" xmlns:xlink="http://www.w3.org/1999/xlink" x="0px" y="0px"
	 viewBox="0 0 51.3 51.5" style="enable-background:new 0 0 51.3 51.5;" xml:space="preserve">
<style type="text/css">
	.st0{clip-path:url(#SVGID_2_);fill:#506A85;}
</style>
<g>
	<defs>
		<rect id="SVGID_1_" y="0" width="51.3" height="51.5"/>
	</defs>
	<clipPath id="SVGID_2_">
		<use xlink:href="#SVGID_1_"  style="overflow:visible;"/>
	</clipPath>
	<path class="st0" d="M20,6.2c3.9,0,7.2,1.5,10.1,4.4c2.9,2.9,4.4,6.3,4.4,10.1c0,3.9-1.4,7.2-4.1,9.9s-6,4.1-9.8,4.1
		c-3.8,0-7.2-1.5-10.1-4.4C7.6,27.3,6.1,24,6.1,20.2c0-3.8,1.4-7.1,4.1-9.8S16.2,6.2,20,6.2 M37.8,31.2c2-3.2,3-6.7,3-10.5
		c0-5.5-2.1-10.4-6.2-14.5C30.4,2.1,25.5,0,20,0C14.5,0,9.8,2,5.9,5.9C2,9.9,0,14.6,0,20.2c0,5.5,2.1,10.4,6.2,14.5
		c4.1,4.1,8.9,6.2,14.5,6.2c3.6,0,7-0.9,10.1-2.7l12.3,12.3c1.4,1.4,2.9,1.4,4.4,0l3-3c1-1.2,0.9-2.6-0.4-4L37.8,31.2z"/>
</g>
</svg>
