<svg xmlns="http://www.w3.org/2000/svg" width="16" height="13" viewBox="0 0 16 13">
  <metadata><?xpacket begin="﻿" id="W5M0MpCehiHzreSzNTczkc9d"?>
<x:xmpmeta xmlns:x="adobe:ns:meta/" x:xmptk="Adobe XMP Core 5.6-c138 79.159824, 2016/09/14-01:09:01        ">
   <rdf:RDF xmlns:rdf="http://www.w3.org/1999/02/22-rdf-syntax-ns#">
      <rdf:Description rdf:about=""/>
   </rdf:RDF>
</x:xmpmeta>                                                                                                     
<?xpacket end="w"?></metadata>
<defs>
    <style>
      .cls-1 {
        fill: #efebe4;
        fill-rule: evenodd;
      }
    </style>
  </defs>
  <path id="logo_-_Twitter" data-name="logo - Twitter" class="cls-1" d="M1351,30.5l-1.5,1.5v0.249a2.943,2.943,0,0,1-.11.788,8.772,8.772,0,0,1-3.39,6.943c-5.31,4.238-11,.5-11,0.5,4.5,0,4.5-1.5,4.5-1.5-1,0-3-1.995-3-1.995a1.515,1.515,0,0,0,1.5,0c-2.5-1.5-2.5-2.993-2.5-2.993a1.516,1.516,0,0,0,1.5,0,3.44,3.44,0,0,1-1-4.489c0.5,2.494,7,3.491,7,3.491l0.08-.041a6.012,6.012,0,0,1-.08-0.956A3.04,3.04,0,0,1,1346.25,29a3.239,3.239,0,0,1,2.46,1.143L1349,30l1.5-1-1,2Z" transform="translate(-1335 -29)"/>
</svg>
