<svg xmlns="http://www.w3.org/2000/svg" width="14" height="16" viewBox="0 0 14 16" class="socila-inst">
  <metadata><?xpacket begin="﻿" id="W5M0MpCehiHzreSzNTczkc9d"?>
<x:xmpmeta xmlns:x="adobe:ns:meta/" x:xmptk="Adobe XMP Core 5.6-c138 79.159824, 2016/09/14-01:09:01        ">
   <rdf:RDF xmlns:rdf="http://www.w3.org/1999/02/22-rdf-syntax-ns#">
      <rdf:Description rdf:about=""/>
   </rdf:RDF>
</x:xmpmeta>                       
<?xpacket end="w"?></metadata>
<defs>
    <style>
      .cls-1 {
        fill: #efebe4;
        fill-rule: evenodd;
      }
    </style>
  </defs>
  <path id="logo_-_Instagram" data-name="logo - Instagram" class="cls-1" d="M1418.5,27h9a2.5,2.5,0,0,1,2.5,2.5v11a2.5,2.5,0,0,1-2.5,2.5h-9a2.5,2.5,0,0,1-2.5-2.5v-11A2.5,2.5,0,0,1,1418.5,27Zm0.5,7h8a2,2,0,0,1,2,2v4a2,2,0,0,1-2,2h-8a2,2,0,0,1-2-2V36A2,2,0,0,1,1419,34Zm-2,0h1v2h-1V34Zm11,0h1v2h-1V34Zm-5-4.5a5.254,5.254,0,1,1-5,5.248A5.129,5.129,0,0,1,1423,29.5ZM1423,31a4,4,0,1,1-4,4A4,4,0,0,1,1423,31Zm3-2h2v2h-2V29Z" transform="translate(-1416 -27)"/>
</svg>
