<svg id="bc" xmlns="http://www.w3.org/2000/svg" width="170" height="63.938" viewBox="0 0 170 63.938">
  <metadata><?xpacket begin="﻿" id="W5M0MpCehiHzreSzNTczkc9d"?>
<x:xmpmeta xmlns:x="adobe:ns:meta/" x:xmptk="Adobe XMP Core 5.6-c138 79.159824, 2016/09/14-01:09:01        ">
   <rdf:RDF xmlns:rdf="http://www.w3.org/1999/02/22-rdf-syntax-ns#">
      <rdf:Description rdf:about=""/>
   </rdf:RDF>
</x:xmpmeta>
                                                                                                    
                                                                                                    
                                                                                                    
                                                                                                    
                                                                                                    
                                                                                                    
                                                                                                    
                                                                                                    
                                                                                                    
                                                                                                    
                                                                                                    
                                                                                                    
                                                                                                    
                                                                                                    
                                                                                                    
                                                                                                    
                                                                                                    
                                                                                                    
                                                                                                    
                                                                                                    
                           
<?xpacket end="w"?></metadata>
<defs>
    <style>
      .cls-1 {
        fill: #eee;
      }

      .cls-1, .cls-2 {
        fill-rule: evenodd;
      }

      .cls-2 {
        fill: #fff;
      }
    </style>
  </defs>
  <path id="shadw" class="cls-1" d="M169.986,19.332C170,16.27,164.8,13.76,158.42,13.753l-15.658-.018c-6.375-.006-15.657-1.582-20.628-3.5,0,0-18.638-7.193-37.13-7.214S47.8,10.15,47.8,10.15c-4.988,1.907-14.286,3.461-20.662,3.455l-15.367-.017C5.4,13.581.169,16.079,0.154,19.14L0.014,47.529C0,50.59,5.2,53.1,11.58,53.109l15.137,0.017c6.376,0.008,15.644,1.591,20.6,3.52,0,0,18.772,7.312,37.392,7.332s37.463-7.248,37.463-7.248c4.971-1.916,14.255-3.48,20.631-3.473l15.427,0.017c6.375,0.008,11.6-2.492,11.62-5.553Z" transform="translate(0 -0.031)"/>
  <path id="bc-2" data-name="bc" class="cls-2" d="M169.986,16.332c0.014-3.062-5.19-5.572-11.566-5.58l-15.658-.017c-6.375-.006-15.657-1.583-20.628-3.5,0,0-18.638-7.194-37.13-7.216S47.8,7.15,47.8,7.15C42.815,9.058,33.518,10.612,27.141,10.6l-15.367-.018C5.4,10.58.169,13.079,0.154,16.141L0.014,44.53C0,47.591,5.2,50.1,11.58,50.109l15.137,0.017c6.376,0.006,15.644,1.59,20.6,3.52,0,0,18.772,7.311,37.392,7.332s37.463-7.248,37.463-7.248c4.971-1.917,14.255-3.48,20.631-3.474l15.427,0.018c6.375,0.007,11.6-2.492,11.62-5.553Z" transform="translate(0 -0.031)"/>
</svg>
