<svg id="Группа_1" data-name="Группа 1" xmlns="http://www.w3.org/2000/svg" width="72.813" height="58.406" viewBox="0 0 72.813 58.406">
  <metadata><?xpacket begin="﻿" id="W5M0MpCehiHzreSzNTczkc9d"?>
<x:xmpmeta xmlns:x="adobe:ns:meta/" x:xmptk="Adobe XMP Core 5.6-c138 79.159824, 2016/09/14-01:09:01        ">
   <rdf:RDF xmlns:rdf="http://www.w3.org/1999/02/22-rdf-syntax-ns#">
      <rdf:Description rdf:about=""/>
   </rdf:RDF>
</x:xmpmeta>
                                                                                                    
                                                                                                    
                                                                                                    
                                                                                                    
                                                                                                    
                                                                                                    
                                                                                                    
                                                                                                    
                                                                                                    
                                                                                                    
                                                                                                    
                                                                                                    
                                                                                                    
                                                                                                    
                                                                                                    
                                                                                                    
                                                                                                    
                                                                                                    
                                                                                                    
                                                                                                    
                           
<?xpacket end="w"?></metadata>
<defs>
    <style>
      .cls-1 {
        fill: #fff;
      }

      .cls-1, .cls-2 {
        fill-rule: evenodd;
      }

      .cls-2 {
        fill: #de5749;
      }
    </style>
  </defs>
  <path id="bc" class="cls-1" d="M61.732,2.848a4.6,4.6,0,0,0-6.319-1.421L49.822,4.638A16.809,16.809,0,0,1,41.089,6.5S31.612,5.435,25.01,9.228,14.55,21.746,14.55,21.746A16.832,16.832,0,0,1,8.54,28.353L3.054,31.506a4.606,4.606,0,0,0-1.959,6.177l11.12,19.374a4.6,4.6,0,0,0,6.32,1.421l5.4-3.1a16.682,16.682,0,0,1,8.729-1.842s9.571,1.117,16.219-2.7S59.395,38.177,59.395,38.177a16.711,16.711,0,0,1,5.99-6.615L70.893,28.4a4.606,4.606,0,0,0,1.959-6.177Z" transform="translate(-0.563 -0.75)"/>
  <path id="speech_bubble_3" data-name="speech bubble 3" class="cls-2" d="M29.69,23.086c6.01-3.47,12.975-2.657,15.558,1.816s-0.2,10.91-6.206,14.38a16.963,16.963,0,0,1-2.065,1.013c-0.012.022-5.132,6.317-5.132,6.317s-0.108-5.154-.115-5.182c-3.559.091-6.694-1.276-8.245-3.963C20.9,32.993,23.68,26.555,29.69,23.086ZM28.641,33.332a1,1,0,1,1-.366,1.367A1,1,0,0,1,28.641,33.332Zm3.467-1.953a1,1,0,1,1-.366,1.366A1,1,0,0,1,32.108,31.379Zm3.5-2.021a1,1,0,1,1-.366,1.366A1,1,0,0,1,35.608,29.359Zm3.464-2a1,1,0,1,1-.366,1.366A1,1,0,0,1,39.072,27.359Z" transform="translate(-0.563 -0.75)"/>
</svg>
