<svg id="Группа_1" data-name="Группа 1" xmlns="http://www.w3.org/2000/svg" width="72.813" height="58.406" viewBox="0 0 72.813 58.406">
  <metadata><?xpacket begin="﻿" id="W5M0MpCehiHzreSzNTczkc9d"?>
<x:xmpmeta xmlns:x="adobe:ns:meta/" x:xmptk="Adobe XMP Core 5.6-c138 79.159824, 2016/09/14-01:09:01        ">
   <rdf:RDF xmlns:rdf="http://www.w3.org/1999/02/22-rdf-syntax-ns#">
      <rdf:Description rdf:about=""/>
   </rdf:RDF>
</x:xmpmeta>
                                                                                                    
                                                                                                    
                                                                                                    
                                                                                                    
                                                                                                    
                                                                                                    
                                                                                                    
                                                                                                    
                                                                                                    
                                                                                                    
                                                                                                    
                                                                                                    
                                                                                                    
                                                                                                    
                                                                                                    
                                                                                                    
                                                                                                    
                                                                                                    
                                                                                                    
                                                                                                    
                           
<?xpacket end="w"?></metadata>
<defs>
    <style>
      .cls-1 {
        fill: #fff;
      }

      .cls-1, .cls-2 {
        fill-rule: evenodd;
      }

      .cls-2 {
        fill: #de5749;
      }
    </style>
  </defs>
  <path id="bc" class="cls-1" d="M61.732,2.848a4.6,4.6,0,0,0-6.319-1.421L49.822,4.639A16.814,16.814,0,0,1,41.089,6.5S31.612,5.434,25.01,9.227s-10.46,12.52-10.46,12.52A16.841,16.841,0,0,1,8.54,28.354L3.054,31.506a4.605,4.605,0,0,0-1.959,6.176l11.12,19.374a4.6,4.6,0,0,0,6.32,1.422l5.4-3.105a16.688,16.688,0,0,1,8.729-1.842s9.571,1.118,16.219-2.7S59.395,38.178,59.395,38.178a16.694,16.694,0,0,1,5.99-6.615L70.893,28.4a4.605,4.605,0,0,0,1.959-6.177Z" transform="translate(-0.563 -0.75)"/>
  <path id="smile_1" data-name="smile 1" class="cls-2" d="M39.048,36.519c3.555-2.053,4.609-5.764,2.8-9.882l-0.866.5q1.573,5.082-2.927,7.681t-8.115-1.306L29.1,34C31.766,37.621,35.492,38.571,39.048,36.519ZM29.5,19.732a12,12,0,1,1-4.392,16.391A12,12,0,0,1,29.5,19.732Zm-0.617,7.082a1.8,1.8,0,0,1,2.3.982,1.8,1.8,0,0,1-.3,2.482,1.805,1.805,0,0,1-2.3-.982A1.8,1.8,0,0,1,28.883,26.814Zm6.987-4.049a1.806,1.806,0,0,1,2.3.982,1.8,1.8,0,0,1-.3,2.481,1.805,1.805,0,0,1-2.3-.98A1.806,1.806,0,0,1,35.87,22.765Z" transform="translate(-0.563 -0.75)"/>
</svg>
