<svg id="Группа_1" data-name="Группа 1" xmlns="http://www.w3.org/2000/svg" width="72.813" height="58.406" viewBox="0 0 72.813 58.406">
  <metadata><?xpacket begin="﻿" id="W5M0MpCehiHzreSzNTczkc9d"?>
<x:xmpmeta xmlns:x="adobe:ns:meta/" x:xmptk="Adobe XMP Core 5.6-c138 79.159824, 2016/09/14-01:09:01        ">
   <rdf:RDF xmlns:rdf="http://www.w3.org/1999/02/22-rdf-syntax-ns#">
      <rdf:Description rdf:about=""/>
   </rdf:RDF>
</x:xmpmeta>
                                                                                                    
                                                                                                    
                                                                                                    
                                                                                                    
                                                                                                    
                                                                                                    
                                                                                                    
                                                                                                    
                                                                                                    
                                                                                                    
                                                                                                    
                                                                                                    
                                                                                                    
                                                                                                    
                                                                                                    
                                                                                                    
                                                                                                    
                                                                                                    
                                                                                                    
                                                                                                    
                           
<?xpacket end="w"?></metadata>
<defs>
    <style>
      .cls-1 {
        fill: #fff;
      }

      .cls-1, .cls-2 {
        fill-rule: evenodd;
      }

      .cls-2 {
        fill: #de5749;
      }
    </style>
  </defs>
  <path id="bc" class="cls-1" d="M61.732,2.848a4.6,4.6,0,0,0-6.319-1.422L49.822,4.639A16.821,16.821,0,0,1,41.089,6.5S31.612,5.434,25.01,9.228,14.55,21.746,14.55,21.746A16.838,16.838,0,0,1,8.54,28.354L3.054,31.506a4.6,4.6,0,0,0-1.959,6.176l11.12,19.375a4.6,4.6,0,0,0,6.32,1.421l5.4-3.1a16.688,16.688,0,0,1,8.729-1.842s9.571,1.118,16.219-2.7S59.395,38.178,59.395,38.178a16.706,16.706,0,0,1,5.99-6.615L70.893,28.4a4.607,4.607,0,0,0,1.959-6.178Z" transform="translate(-0.563 -0.75)"/>
  <path id="iCloud_up" data-name="iCloud up" class="cls-2" d="M28.225,27.488a4.085,4.085,0,0,0-4.4,2.121,4.555,4.555,0,0,0,.4,4.833s-4.287,3.726-1.445,8.65c2.947,4.854,8.111,1.938,8.111,1.938l8.083-4.667-2.969-5.142-2.544,1.468,1.62-7.069,6.932,2.133-2.544,1.468,2.969,5.142,7.346-4.242s4.783-2.754,2.754-7.82c-2.633-5.3-8.156-3.456-8.156-3.456s-3.809-7.9-11.245-4.754C26.843,20.918,28.225,27.488,28.225,27.488Z" transform="translate(-0.563 -0.75)"/>
</svg>
