<svg id="Группа_1" data-name="Группа 1" xmlns="http://www.w3.org/2000/svg" width="72.813" height="58.406" viewBox="0 0 72.813 58.406">
  <metadata><?xpacket begin="﻿" id="W5M0MpCehiHzreSzNTczkc9d"?>
<x:xmpmeta xmlns:x="adobe:ns:meta/" x:xmptk="Adobe XMP Core 5.6-c138 79.159824, 2016/09/14-01:09:01        ">
   <rdf:RDF xmlns:rdf="http://www.w3.org/1999/02/22-rdf-syntax-ns#">
      <rdf:Description rdf:about=""/>
   </rdf:RDF>
</x:xmpmeta>
                                                                                                    
                                                                                                    
                                                                                                    
                                                                                                    
                                                                                                    
                                                                                                    
                                                                                                    
                                                                                                    
                                                                                                    
                                                                                                    
                                                                                                    
                                                                                                    
                                                                                                    
                                                                                                    
                                                                                                    
                                                                                                    
                                                                                                    
                                                                                                    
                                                                                                    
                                                                                                    
                           
<?xpacket end="w"?></metadata>
<defs>
    <style>
      .cls-1 {
        fill: #fff;
      }

      .cls-1, .cls-2 {
        fill-rule: evenodd;
      }

      .cls-2 {
        fill: #de5749;
      }
    </style>
  </defs>
  <path id="bc" class="cls-1" d="M61.732,2.848a4.6,4.6,0,0,0-6.319-1.422L49.822,4.639A16.821,16.821,0,0,1,41.089,6.5S31.612,5.434,25.01,9.228,14.55,21.746,14.55,21.746a16.838,16.838,0,0,1-6.009,6.608L3.054,31.506a4.6,4.6,0,0,0-1.959,6.176l11.12,19.375a4.6,4.6,0,0,0,6.32,1.421l5.4-3.1a16.688,16.688,0,0,1,8.729-1.842s9.571,1.118,16.219-2.7S59.395,38.178,59.395,38.178a16.706,16.706,0,0,1,5.99-6.615L70.893,28.4a4.607,4.607,0,0,0,1.959-6.178Z" transform="translate(-0.563 -0.75)"/>
  <path id="settings" class="cls-2" d="M47.995,33.005H46.671a9.466,9.466,0,0,1-.919,2.2l1.224,1.225a2,2,0,0,1,0,2.835l-0.709.709a2.006,2.006,0,0,1-2.836,0L42.2,38.744a9.469,9.469,0,0,1-2.194.9v1.285a2,2,0,0,1-2,2.005H37a2,2,0,0,1-2.005-2.005V39.646a9.49,9.49,0,0,1-2.194-.9l-1.231,1.231a2.005,2.005,0,0,1-2.835,0l-0.709-.709a2,2,0,0,1,0-2.835l1.224-1.225a9.462,9.462,0,0,1-.919-2.2H27A2.005,2.005,0,0,1,25,31V30A2.005,2.005,0,0,1,27,27.992h1.308a9.476,9.476,0,0,1,.887-2.187L28.023,24.63a2.005,2.005,0,0,1,0-2.836l0.709-.709a2,2,0,0,1,2.835,0l1.154,1.152a9.491,9.491,0,0,1,2.272-.95V19.941a2.005,2.005,0,0,1,2.005-2h1a2.005,2.005,0,0,1,2,2v1.347a9.493,9.493,0,0,1,2.272.95l1.153-1.152a2,2,0,0,1,2.836,0l0.709,0.709a2.005,2.005,0,0,1,0,2.836L45.8,25.805a9.472,9.472,0,0,1,.887,2.187h1.308A2.005,2.005,0,0,1,50,30v1A2.005,2.005,0,0,1,47.995,33.005ZM37.5,25.016a5.514,5.514,0,1,0,5.514,5.514A5.514,5.514,0,0,0,37.5,25.016Zm0,7.957a2.507,2.507,0,1,1,2.506-2.506A2.506,2.506,0,0,1,37.5,32.973Z" transform="translate(-0.563 -0.75)"/>
</svg>
