<svg id="Группа_1" data-name="Группа 1" xmlns="http://www.w3.org/2000/svg" width="72.813" height="58.406" viewBox="0 0 72.813 58.406">
  <metadata><?xpacket begin="﻿" id="W5M0MpCehiHzreSzNTczkc9d"?>
<x:xmpmeta xmlns:x="adobe:ns:meta/" x:xmptk="Adobe XMP Core 5.6-c138 79.159824, 2016/09/14-01:09:01        ">
   <rdf:RDF xmlns:rdf="http://www.w3.org/1999/02/22-rdf-syntax-ns#">
      <rdf:Description rdf:about=""/>
   </rdf:RDF>
</x:xmpmeta>
                                                                                                    
                                                                                                    
                                                                                                    
                                                                                                    
                                                                                                    
                                                                                                    
                                                                                                    
                                                                                                    
                                                                                                    
                                                                                                    
                                                                                                    
                                                                                                    
                                                                                                    
                                                                                                    
                                                                                                    
                                                                                                    
                                                                                                    
                                                                                                    
                                                                                                    
                                                                                                    
                           
<?xpacket end="w"?></metadata>
<defs>
    <style>
      .cls-1 {
        fill: #fff;
      }

      .cls-1, .cls-2 {
        fill-rule: evenodd;
      }

      .cls-2 {
        fill: #de5749;
      }
    </style>
  </defs>
  <path id="bc" class="cls-1" d="M61.732,2.848a4.6,4.6,0,0,0-6.319-1.421L49.822,4.639A16.814,16.814,0,0,1,41.089,6.5S31.612,5.434,25.01,9.227s-10.46,12.52-10.46,12.52a16.841,16.841,0,0,1-6.009,6.607L3.054,31.506a4.605,4.605,0,0,0-1.959,6.176l11.12,19.374a4.6,4.6,0,0,0,6.32,1.422l5.4-3.105a16.688,16.688,0,0,1,8.729-1.842s9.571,1.118,16.219-2.7S59.395,38.178,59.395,38.178a16.694,16.694,0,0,1,5.99-6.615L70.893,28.4a4.605,4.605,0,0,0,1.959-6.177Z" transform="translate(-0.563 -0.75)"/>
  <path id="plane_2" data-name="plane 2" class="cls-2" d="M54,32l-8.853,2.769-10.9-9.56,8.449,10.3-9.467,3.017L28.352,19.181ZM42.992,37.03v5.324l-3.117-4.4Z" transform="translate(-0.563 -0.75)"/>
</svg>
