<svg id="Группа_1" data-name="Группа 1" xmlns="http://www.w3.org/2000/svg" width="72.813" height="58.406" viewBox="0 0 72.813 58.406">
  <metadata><?xpacket begin="﻿" id="W5M0MpCehiHzreSzNTczkc9d"?>
<x:xmpmeta xmlns:x="adobe:ns:meta/" x:xmptk="Adobe XMP Core 5.6-c138 79.159824, 2016/09/14-01:09:01        ">
   <rdf:RDF xmlns:rdf="http://www.w3.org/1999/02/22-rdf-syntax-ns#">
      <rdf:Description rdf:about=""/>
   </rdf:RDF>
</x:xmpmeta>
                                                                                                    
                                                                                                    
                                                                                                    
                                                                                                    
                                                                                                    
                                                                                                    
                                                                                                    
                                                                                                    
                                                                                                    
                                                                                                    
                                                                                                    
                                                                                                    
                                                                                                    
                                                                                                    
                                                                                                    
                                                                                                    
                                                                                                    
                                                                                                    
                                                                                                    
                                                                                                    
                           
<?xpacket end="w"?></metadata>
<defs>
    <style>
      .cls-1 {
        fill: #fff;
      }

      .cls-1, .cls-2 {
        fill-rule: evenodd;
      }

      .cls-2 {
        fill: #de5749;
      }
    </style>
  </defs>
  <path id="bc" class="cls-1" d="M61.732,2.848a4.6,4.6,0,0,0-6.319-1.421L49.822,4.638A16.809,16.809,0,0,1,41.089,6.5S31.612,5.435,25.01,9.228,14.55,21.746,14.55,21.746a16.832,16.832,0,0,1-6.009,6.607L3.054,31.506a4.606,4.606,0,0,0-1.959,6.177l11.12,19.374a4.6,4.6,0,0,0,6.32,1.421l5.4-3.1a16.682,16.682,0,0,1,8.729-1.842s9.571,1.117,16.219-2.7S59.395,38.177,59.395,38.177a16.711,16.711,0,0,1,5.99-6.615L70.893,28.4a4.606,4.606,0,0,0,1.959-6.177Z" transform="translate(-0.563 -0.75)"/>
  <path id="preview" class="cls-2" d="M21.482,40.142s-0.113-13.4,9.034-18.678c8.66-5,20.968,1.357,20.968,1.357s-0.7,13.868-9.309,18.837c-9.2,5.313-20.693-1.516-20.693-1.516h0ZM33.814,26.988A5.239,5.239,0,1,1,31.9,34.145,5.241,5.241,0,0,1,33.814,26.988Zm1.338,2.254A2.608,2.608,0,1,1,34.2,32.8,2.607,2.607,0,0,1,35.152,29.241Z" transform="translate(-0.563 -0.75)"/>
</svg>
