<svg version="1" xmlns="http://www.w3.org/2000/svg" width="340" height="340" viewBox="0 0 255.000000 255.000000"><path d="M195.3 26c-1.3.5-7 3.7-12.8 7-20.1 11.6-23.9 12.5-50.5 12.1-9.4-.2-22.6 1-27.2 2.5-.9.3-2.5.7-3.5.9C82.1 52.9 62.1 71.7 50 96.6c-3.1 6.6-9.6 15.3-14.3 19.4-1.6 1.4-6.8 4.8-11.5 7.7-4.8 2.9-11.3 6.8-14.4 8.7-9.5 5.8-12.2 15.3-6.7 24.4 1.2 2 3.1 5.3 4.2 7.2 9 15.9 33.1 57.7 34.3 59.5 2 3.1 9.1 6.5 13.5 6.5 2.5 0 7.3-2.1 16.7-7.5 20-11.3 21.9-11.8 45.2-12.1 20.5-.2 24.4-.5 35-3.1 22.3-5.4 37.4-19.3 53.1-48.8 7.5-14 15.5-21.8 31.8-31 15-8.5 17.6-11.3 17.6-19.4 0-3.9-.7-6.7-2.1-9.1-1.2-1.9-3.3-5.5-4.7-8-1.3-2.5-7.5-13.2-13.6-23.9S223 47.6 223 47.5c0-.1-2.4-4.2-5.3-9.1-4-6.6-6.3-9.5-9.3-11.1-4-2.3-9.3-2.8-13.1-1.3z"/></svg>